<svg width="82" height="82" viewBox="0 0 82 82" fill="none" xmlns="http://www.w3.org/2000/svg">
<path fill-rule="evenodd" clip-rule="evenodd" d="M25.6154 9.18051C26.9121 8.61349 27.5036 7.10266 26.9366 5.80599C26.3696 4.50932 24.8587 3.91782 23.5621 4.48485C15.8515 7.85661 9.30901 13.3934 4.69989 20.3256C3.91632 21.5041 4.23647 23.0947 5.41498 23.8783C6.59349 24.6619 8.18407 24.3417 8.96765 23.1632C13.0377 17.0417 18.8151 12.1542 25.6154 9.18051ZM58.4388 4.48485C57.1421 3.91782 55.6313 4.50932 55.0643 5.80599C54.4973 7.10266 55.0888 8.61349 56.3854 9.18051C63.1858 12.1542 68.9631 17.0417 73.0332 23.1632C73.8168 24.3417 75.4074 24.6619 76.5859 23.8783C77.7644 23.0947 78.0846 21.5041 77.301 20.3256C72.6919 13.3934 66.1494 7.85661 58.4388 4.48485ZM66.4517 64.5619C70.8388 59.0269 73.4585 52.0275 73.4585 44.4162C73.4585 26.4899 58.9265 11.9578 41.0002 11.9578C23.074 11.9578 8.54188 26.4899 8.54188 44.4162C8.54188 52.0273 11.1615 59.0266 15.5484 64.5615L8.25952 73.5526C7.36829 74.6519 7.53702 76.2656 8.63638 77.1568C9.73573 78.0481 11.3494 77.8793 12.2406 76.78L19.0747 68.35C24.8503 73.6438 32.548 76.8745 41.0002 76.8745C49.4523 76.8745 57.1498 73.644 62.9254 68.3503L69.7596 76.78C70.6508 77.8794 72.2645 78.048 73.3638 77.1568C74.4632 76.2655 74.6319 74.6518 73.7406 73.5525L66.4517 64.5619ZM41 24.7703C42.4152 24.7703 43.5625 25.9176 43.5625 27.3328V43.0448L52.6714 49.1174C53.849 49.9024 54.1672 51.4934 53.3821 52.6709C52.5971 53.8485 51.0061 54.1667 49.8286 53.3816L39.5786 46.5483C38.8657 46.0731 38.4375 45.273 38.4375 44.4162V27.3328C38.4375 25.9176 39.5848 24.7703 41 24.7703Z" fill="white"/>
</svg>
