<svg width="62" height="62" viewBox="0 0 62 62" fill="none" xmlns="http://www.w3.org/2000/svg">
<path fill-rule="evenodd" clip-rule="evenodd" d="M19.368 6.9417C20.3484 6.51297 20.7956 5.37064 20.3669 4.39023C19.9382 3.40982 18.7958 2.96259 17.8154 3.39131C11.9855 5.9407 7.03872 10.1271 3.55378 15.3685C2.96132 16.2596 3.20339 17.4622 4.09446 18.0547C4.98552 18.6471 6.18816 18.405 6.78062 17.514C9.85801 12.8856 14.2262 9.19013 19.368 6.9417ZM44.1857 3.39131C43.2052 2.96259 42.0629 3.40982 41.6342 4.39023C41.2055 5.37064 41.6527 6.51297 42.6331 6.9417C47.7748 9.19013 52.1431 12.8855 55.2205 17.514C55.8129 18.405 57.0155 18.6471 57.9066 18.0547C58.7977 17.4622 59.0398 16.2596 58.4473 15.3685C54.9623 10.1271 50.0156 5.9407 44.1857 3.39131ZM50.2445 48.8148C53.5615 44.6298 55.5423 39.3376 55.5423 33.5827C55.5423 20.0287 44.5546 9.04102 31.0006 9.04102C17.4467 9.04102 6.45898 20.0287 6.45898 33.5827C6.45898 39.3374 8.4397 44.6295 11.7566 48.8145L6.24549 55.6126C5.57164 56.4438 5.69921 57.6639 6.53043 58.3378C7.36165 59.0117 8.58176 58.8841 9.25561 58.0529L14.4228 51.679C18.7897 55.6816 24.6099 58.1243 31.0006 58.1243C37.3912 58.1243 43.2113 55.6817 47.5782 51.6792L52.7455 58.0529C53.4194 58.8841 54.6395 59.0117 55.4707 58.3378C56.3019 57.6639 56.4295 56.4438 55.7556 55.6126L50.2445 48.8148ZM31.0005 18.7285C32.0705 18.7285 32.938 19.596 32.938 20.666V32.5458L39.8252 37.1372C40.7156 37.7308 40.9561 38.9337 40.3626 39.8241C39.769 40.7144 38.5661 40.955 37.6758 40.3614L29.9258 35.1948C29.3867 34.8354 29.063 34.2305 29.063 33.5827V20.666C29.063 19.596 29.9304 18.7285 31.0005 18.7285Z" fill="#4664FF"/>
</svg>
